<?xml version="1.0" encoding="UTF-8"?>
<svg id="Capa_1" data-name="Capa 1" xmlns="http://www.w3.org/2000/svg" version="1.1" viewBox="0 0 1280 533.4">
  <defs>
    <style>
      .cls-1 {
        fill: #8e8e8e;
        stroke-width: 0px;
      }
    </style>
  </defs>
  <path class="cls-1" d="M93.8,141.1h64.4l1.9,1.9,11.9,33.1,11.9,33.8,15.6,43.8,10,28.1,9.4,26.2,10.6,30,10,27.5,6.2,18.1,4.4,11.9v4.4l-1.2,1.2h-61.2l-1.9-1.9-10-31.9-5-16.2v-1.9l-90,.6-8.8,25-8.8,24.4-1.2,1.9H1.9l-1.9-2.5,1.9-6.9,10-27.5,8.8-24.4,10.6-29.4,17.5-48.8,21.2-58.8,8.8-24.4,10.6-29.4,3.1-7.5,1.2-.6ZM125,211.7l-2.5,6.2-6.9,21.9-12.5,39.4-6.9,22.5h56.9l-5-16.9-8.1-26.2-7.5-24.4-6.9-22.5h-.6Z"/>
  <path class="cls-1" d="M928.1,136.1h50.6l1.2,1.2v262.5l-1.2,1.2h-50l-1.2-1.2-1.2-14.4-4.4,5-8.1,6.2-9.4,5-10,3.1-6.9,1.2-7.5.6h-6.2l-11.9-1.2-14.4-3.8-13.1-6.2-8.8-6.2-8.1-7.5-7.5-9.4-6.9-11.9-5-11.9-3.8-13.1-1.9-10.6-1.2-13.8v-15.6l1.2-14.4,2.5-12.5,3.8-12.5,4.4-10,3.8-6.9,4.4-6.2,5.6-6.9,5-5,7.5-5.6,8.8-5,9.4-3.8,10-2.5,13.8-1.2,12.5.6,10,1.9,10,3.8,9.4,5,8.1,6.2,5,5,.6-87.5,1.2-1.9ZM881.2,251.1l-8.8,2.5-7.5,4.4-4.4,4.4-5,8.1-3.8,11.2-1.9,11.2v22.5l2.5,12.5,3.1,8.1,4.4,7.5,6.9,7.5,6.2,4.4,7.5,2.5,3.8.6h8.1l10-2.5,6.9-4.4,6.9-6.9,4.4-6.9,3.1-7.5,2.5-9.4.6-4.4v-20l-1.9-13.1-3.1-10.6-3.8-7.5-5.6-6.2-4.4-3.8-6.9-3.1-5.6-1.2h-14.4Z"/>
  <path class="cls-1" d="M1080.6,203.6h30.6l16.2,2.5,13.1,4.4,8.8,4.4,6.9,5,4.4,3.8,5,6.2,5,8.8,3.8,9.4,3.1,15.6.6,5.6v130.6l-1.2,1.2h-52.5l-1.9-3.1-2.5-9.4-6.2,5-8.8,5-9.4,3.8-10,2.5-8.1,1.2-8.1.6h-7.5l-13.8-1.2-13.1-3.1-7.5-3.1-7.5-4.4-7.5-6.9-5-6.9-4.4-8.8-2.5-9.4-.6-4.4v-16.9l1.9-12.5,3.8-10,4.4-7.5,5.6-6.2,4.4-4.4,8.8-5.6,9.4-4.4,12.5-3.8,15-3.1,31.2-5,10.6-2.5,6.2-2.5,3.1-2.5,1.9-4.4.6-5.6-1.2-5.6-4.4-5-6.9-3.1-5-1.2-6.2-.6h-5.6l-8.1,1.2-5.6,2.5-3.8,2.5-4.4,6.9-3.1,8.1-1.9,8.1-1.2,1.2h-50l-1.2-1.2v-7.5l1.9-13.1,3.1-10.6,5-10,6.2-8.1,4.4-4.4,8.8-6.2,10-5,11.2-3.8,8.8-1.9,10.6-1.2ZM1119.4,311.7l-8.1,3.1-16.2,3.8-15.6,3.8-8.1,3.1-6.2,3.8-3.8,4.4-2.5,5.6-.6,3.1v6.9l1.9,6.2,3.1,4.4,6.2,3.1,3.1.6h13.1l9.4-2.5,8.1-4.4,6.2-5.6,4.4-5,4.4-8.8,1.2-4.4.6-6.2v-15h-.6Z"/>
  <path class="cls-1" d="M470.6,203.6h30.6l13.1,1.9,9.4,2.5,10,3.8,8.8,5,8.1,6.9,5.6,6.9,5,8.8,4.4,13.1,1.9,10.6.6,6.2v130.6l-1.2,1.2h-51.9l-1.9-1.9-2.5-9.4v-1.2l-10,6.9-10,5-9.4,3.1-13.1,2.5-8.8.6h-7.5l-13.8-1.2-13.1-3.1-10-4.4-6.2-4.4-5.6-5-5.6-7.5-5-10.6-1.9-8.1-.6-5v-14.4l1.9-13.1,2.5-7.5,5-9.4,5-6.2,5.6-5.6,8.8-5.6,11.2-5,13.1-3.8,16.2-3.1,31.2-5,9.4-2.5,5.6-3.1,2.5-3.1,1.2-3.8v-6.9l-2.5-5-4.4-3.8-7.5-3.1-9.4-1.2h-5.6l-10,1.9-5.6,3.1-4.4,5-3.8,7.5-2.5,11.2-1.9,1.9h-50l-1.2-1.9v-6.9l1.9-12.5,2.5-9.4,4.4-10,5.6-7.5,5.6-6.2,9.4-6.9,11.9-5.6,11.9-3.8,16.9-2.5ZM509.4,311.7l-10,3.8-23.1,5-10.6,3.1-8.8,4.4-4.4,3.8-3.8,7.5-.6,8.1,1.2,6.9,2.5,3.8,4.4,3.8,6.2,1.9h13.1l7.5-1.9,10-5,6.9-5.6,5-6.9,3.8-8.1,1.2-5.6v-18.8h-.6Z"/>
  <path class="cls-1" d="M704.4,202.9l12.5.6,12.5,2.5,9.4,3.8,6.9,3.8,6.9,5.6,4.4,4.4,5.6,8.1,4.4,8.8,3.1,10,1.2,7.5.6,7.5v133.1l-1.9,2.5h-55l-1.9-1.9-.6-123.8-1.9-10-2.5-5.6-3.8-4.4-5.6-2.5-5.6-1.2h-15l-8.8,2.5-6.2,3.8-5,5.6-3.8,8.8-1.9,9.4-.6,116.9-1.9,2.5h-55l-1.9-2.5v-187.5l1.9-2.5h55l1.9,1.9-.6,14.4,7.5-7.5,9.4-6.2,10.6-4.4,10.6-2.5,4.4-.6,10.6-.6Z"/>
  <path class="cls-1" d="M365.6,197.9h15.6l1.9,1.9v55.6l-1.9,1.9-8.8-.6h-13.8l-10,1.9-7.5,3.1-5.6,3.8-5,5.6-4.4,8.8-1.9,8.8-.6,6.2-.6,105-1.2,1.2h-55l-1.9-1.9v-194.4l1.2-1.2h52.5l1.2,1.2.6,14.4,4.4-5,5.6-5,8.8-5,7.5-3.1,6.9-1.9,11.9-1.2Z"/>
  <path class="cls-1" d="M1022.5,71.7h11.2l7.5,1.9,8.8,4.4,7.5,6.9,5,5.6,5.6,8.1,7.5,11.9,7.5,12.5,6.2,8.8,6.9,8.8,6.9,7.5,6.2,6.2,6.9,4.4,3.8,1.2-1.9,1.9-10.6,5-13.1,5-14.4,3.8-8.8,1.2h-11.9l-12.5-1.9-10.6-3.1-10.6-5-7.5-5-7.5-6.9-5.6-5.6-4.4-6.2-6.2-11.2-3.1-8.1-1.9-10v-7.5l2.5-10,4.4-8.1,5.6-6.2,6.2-5,6.9-3.1,7.5-1.9Z"/>
  <path class="cls-1" d="M1201.9,142.9h5.6l13.8,1.9,13.1,3.8,10,5,8.1,5.6,7.5,6.9,5.6,6.2,5.6,8.8,5,10,2.5,8.1,1.2,6.9v7.5l-1.9,8.8-5,10-6.2,6.9-6.2,4.4-6.9,3.1-9.4,1.9h-5.6l-7.5-1.2-8.1-3.1-6.9-5-8.1-8.1-7.5-10.6-10-16.2-6.2-10-6.2-8.8-6.9-8.1-5.6-6.2-5-5-7.5-5-3.8-1.2,2.5-1.9,10.6-5,11.2-4.4,13.8-3.8,6.9-1.2,7.5-.6Z"/>
  <path class="cls-1" d="M1179.4,16.1h11.2l10.6,3.1,6.9,4.4,6.2,5.6,5.6,8.8,2.5,7.5.6,3.1v11.9l-1.9,7.5-3.8,7.5-5,6.2-7.5,6.9-15,10-17.5,10.6-10.6,7.5-10,8.1-8.1,7.5-5.6,6.9-3.1,6.9-1.9-1.9-6.2-13.1-5.6-16.9-2.5-11.9-.6-5.6v-10.6l1.9-12.5,3.8-12.5,5-10,6.2-8.8,7.5-8.1,6.2-5,8.1-5,10-5,8.8-2.5,3.8-.6Z"/>
  <path class="cls-1" d="M776.2,436.1h10.6l1.2,3.1,13.1,54.4,1.9,6.2,10-36.2,7.5-26.9.6-.6h10.6l5.6,16.9,10.6,34.4,3.8,12.5,1.2-2.5,5.6-23.8,8.8-36.9.6-.6h10.6l-.6,5-10,37.5-7.5,27.5-3.1,11.2h-11.2l-15.6-53.1-3.8-12.5-1.2,2.5-10.6,40-5.6,21.9-.6,1.2h-11.2l-11.2-41.9-10-36.9v-2.5Z"/>
  <path class="cls-1" d="M1013.8,436.1h40.6l8.8,1.2,7.5,3.8,4.4,5,2.5,5.6,1.2,5.6v13.1l-1.9,6.2-3.8,3.1-4.4,1.9h-1.9v1.2l3.1,1.2,4.4,3.8,3.8,6.2,5.6,20.6v2.5h-10.6l-1.9-5-4.4-16.2-3.8-5-5.6-3.8-6.9-1.9-26.2-.6v32.5h-11.2v-80.6l.6-.6ZM1024.4,447.3v26.2l.6.6h27.5l8.8-1.9,5-4.4,1.2-3.8v-7.5l-2.5-5-4.4-3.1-4.4-1.2h-31.9Z"/>
  <path class="cls-1" d="M1118.8,436.1h59.4v11.2h-48.8v21.2h43.1l.6.6v9.4l-.6,1.2h-43.1v26.2h48.8v11.2h-59.4l-.6-.6v-80l.6-.6Z"/>
  <path class="cls-1" d="M527.5,436.1h6.9l7.5,1.2,7.5,3.1,5,3.1,6.2,5.6,5,8.1,2.5,8.1,1.2,7.5v7.5l-1.9,10-3.1,8.1-5,6.9-5.6,5-6.2,3.8-8.1,2.5-4.4.6h-7.5l-9.4-1.9-8.8-4.4-6.2-5.6-3.8-4.4-4.4-9.4-1.9-9.4v-11.2l1.9-9.4,5-10,5.6-6.2,5-3.8,7.5-3.8,9.4-1.9ZM525.6,447.3l-7.5,2.5-5.6,4.4-4.4,5-3.1,7.5-.6,3.1v13.8l2.5,8.1,4.4,6.9,5.6,4.4,6.2,2.5,2.5.6h10.6l6.2-1.9,6.2-3.8,5-5.6,3.1-6.9,1.2-5.6v-11.2l-1.9-7.5-3.8-6.9-4.4-4.4-5.6-3.1-5.6-1.9h-11.2Z"/>
  <path class="cls-1" d="M424.4,436.1h6.9l8.1,1.2,8.1,3.1,3.8,2.5,5,5.6,2.5,6.2v3.1h-11.2l-2.5-5.6-5-3.1-5-1.2h-13.1l-6.2,1.9-4.4,3.8-.6,1.2v6.2l3.1,3.1,6.9,2.5,18.8,4.4,8.8,3.8,5.6,4.4,3.8,5.6,1.2,4.4v7.5l-2.5,6.9-3.8,5-5.6,4.4-5.6,2.5-8.8,1.9h-10l-10.6-1.9-6.9-2.5-6.9-5-3.8-6.2-1.2-5.6.6-.6h10.6l3.1,5,5,3.1,7.5,1.9h14.4l6.9-2.5,5-4.4.6-1.9v-6.2l-1.9-3.1-5-3.1-7.5-2.5-15.6-3.8-8.1-3.1-5-3.8-3.8-5-1.2-4.4v-6.9l2.5-6.9,5-5.6,8.8-4.4,4.4-1.2,5-.6Z"/>
  <path class="cls-1" d="M934.4,436.1h11.2l5.6,13.1,10.6,25.6,12.5,30.6,4.4,10.6v1.2l-11.2-.6-3.8-8.1-6.9-16.9v-1.2h-33.1l-.6,3.8-6.2,16.2-2.5,6.2-.6.6h-10.6l.6-3.8,10-25.6,8.1-21.2,10-25.6,2.5-5ZM939.4,449.8l-6.2,16.9-4.4,10.6v1.9h23.1l-1.9-6.2-9.4-22.5-1.2-.6Z"/>
  <path class="cls-1" d="M609.4,436.1h48.1l.6.6v10l-.6.6h-37.5v21.2h32.5v11.2h-32.5v37.5h-10.6l-.6-.6v-80l.6-.6Z"/>
  <path class="cls-1" d="M687.5,436.1h64.4l.6.6v10l-.6.6h-26.9v70h-10.6v-70h-26.9l-.6-.6v-10l.6-.6Z"/>
</svg>