<?xml version="1.0" encoding="UTF-8"?>
<svg xmlns="http://www.w3.org/2000/svg" version="1.1" viewBox="0 0 1280 533.4">
  <defs>
    <style>
      .cls-1 {
        fill: #8e8e8e;
        stroke-width: 0px;
      }

      .cls-2 {
        display: none;
      }
    </style>
  </defs>
  <g id="Capa_1" data-name="Capa 1" class="cls-2">
    <g>
      <path class="cls-1" d="M93.8,141.1h64.4l1.9,1.9,11.9,33.1,11.9,33.8,15.6,43.8,10,28.1,9.4,26.2,10.6,30,10,27.5,6.2,18.1,4.4,11.9v4.4l-1.2,1.2h-61.2l-1.9-1.9-10-31.9-5-16.2v-1.9l-90,.6-8.8,25-8.8,24.4-1.2,1.9H1.9l-1.9-2.5,1.9-6.9,10-27.5,8.8-24.4,10.6-29.4,17.5-48.8,21.2-58.8,8.8-24.4,10.6-29.4,3.1-7.5,1.2-.6v.2ZM125,211.7l-2.5,6.2-6.9,21.9-12.5,39.4-6.9,22.5h56.9l-5-16.9-8.1-26.2-7.5-24.4-6.9-22.5h-.6Z"/>
      <path class="cls-1" d="M928.1,136.1h50.6l1.2,1.2v262.5l-1.2,1.2h-50l-1.2-1.2-1.2-14.4-4.4,5-8.1,6.2-9.4,5-10,3.1-6.9,1.2-7.5.6h-6.2l-11.9-1.2-14.4-3.8-13.1-6.2-8.8-6.2-8.1-7.5-7.5-9.4-6.9-11.9-5-11.9-3.8-13.1-1.9-10.6-1.2-13.8v-15.6l1.2-14.4,2.5-12.5,3.8-12.5,4.4-10,3.8-6.9,4.4-6.2,5.6-6.9,5-5,7.5-5.6,8.8-5,9.4-3.8,10-2.5,13.8-1.2,12.5.6,10,1.9,10,3.8,9.4,5,8.1,6.2,5,5,.6-87.5,1.2-1.9v.2ZM881.2,251.1l-8.8,2.5-7.5,4.4-4.4,4.4-5,8.1-3.8,11.2-1.9,11.2v22.5l2.5,12.5,3.1,8.1,4.4,7.5,6.9,7.5,6.2,4.4,7.5,2.5,3.8.6h8.1l10-2.5,6.9-4.4,6.9-6.9,4.4-6.9,3.1-7.5,2.5-9.4.6-4.4v-20l-1.9-13.1-3.1-10.6-3.8-7.5-5.6-6.2-4.4-3.8-6.9-3.1-5.6-1.2h-14.4.2Z"/>
      <path class="cls-1" d="M1080.6,203.6h30.6l16.2,2.5,13.1,4.4,8.8,4.4,6.9,5,4.4,3.8,5,6.2,5,8.8,3.8,9.4,3.1,15.6.6,5.6v130.6l-1.2,1.2h-52.5l-1.9-3.1-2.5-9.4-6.2,5-8.8,5-9.4,3.8-10,2.5-8.1,1.2-8.1.6h-7.5l-13.8-1.2-13.1-3.1-7.5-3.1-7.5-4.4-7.5-6.9-5-6.9-4.4-8.8-2.5-9.4-.6-4.4v-16.9l1.9-12.5,3.8-10,4.4-7.5,5.6-6.2,4.4-4.4,8.8-5.6,9.4-4.4,12.5-3.8,15-3.1,31.2-5,10.6-2.5,6.2-2.5,3.1-2.5,1.9-4.4.6-5.6-1.2-5.6-4.4-5-6.9-3.1-5-1.2-6.2-.6h-5.6l-8.1,1.2-5.6,2.5-3.8,2.5-4.4,6.9-3.1,8.1-1.9,8.1-1.2,1.2h-50l-1.2-1.2v-7.5l1.9-13.1,3.1-10.6,5-10,6.2-8.1,4.4-4.4,8.8-6.2,10-5,11.2-3.8,8.8-1.9,10.6-1.2h-.2ZM1119.4,311.7l-8.1,3.1-16.2,3.8-15.6,3.8-8.1,3.1-6.2,3.8-3.8,4.4-2.5,5.6-.6,3.1v6.9l1.9,6.2,3.1,4.4,6.2,3.1,3.1.6h13.1l9.4-2.5,8.1-4.4,6.2-5.6,4.4-5,4.4-8.8,1.2-4.4.6-6.2v-15h-.6Z"/>
      <path class="cls-1" d="M470.6,203.6h30.6l13.1,1.9,9.4,2.5,10,3.8,8.8,5,8.1,6.9,5.6,6.9,5,8.8,4.4,13.1,1.9,10.6.6,6.2v130.6l-1.2,1.2h-51.9l-1.9-1.9-2.5-9.4v-1.2l-10,6.9-10,5-9.4,3.1-13.1,2.5-8.8.6h-7.5l-13.8-1.2-13.1-3.1-10-4.4-6.2-4.4-5.6-5-5.6-7.5-5-10.6-1.9-8.1-.6-5v-14.4l1.9-13.1,2.5-7.5,5-9.4,5-6.2,5.6-5.6,8.8-5.6,11.2-5,13.1-3.8,16.2-3.1,31.2-5,9.4-2.5,5.6-3.1,2.5-3.1,1.2-3.8v-6.9l-2.5-5-4.4-3.8-7.5-3.1-9.4-1.2h-5.6l-10,1.9-5.6,3.1-4.4,5-3.8,7.5-2.5,11.2-1.9,1.9h-50l-1.2-1.9v-6.9l1.9-12.5,2.5-9.4,4.4-10,5.6-7.5,5.6-6.2,9.4-6.9,11.9-5.6,11.9-3.8,16.9-2.5h.1ZM509.4,311.7l-10,3.8-23.1,5-10.6,3.1-8.8,4.4-4.4,3.8-3.8,7.5-.6,8.1,1.2,6.9,2.5,3.8,4.4,3.8,6.2,1.9h13.1l7.5-1.9,10-5,6.9-5.6,5-6.9,3.8-8.1,1.2-5.6v-18.8h-.6v-.2Z"/>
      <path class="cls-1" d="M704.4,202.9l12.5.6,12.5,2.5,9.4,3.8,6.9,3.8,6.9,5.6,4.4,4.4,5.6,8.1,4.4,8.8,3.1,10,1.2,7.5.6,7.5v133.1l-1.9,2.5h-55l-1.9-1.9-.6-123.8-1.9-10-2.5-5.6-3.8-4.4-5.6-2.5-5.6-1.2h-15l-8.8,2.5-6.2,3.8-5,5.6-3.8,8.8-1.9,9.4-.6,116.9-1.9,2.5h-55l-1.9-2.5v-187.5l1.9-2.5h55l1.9,1.9-.6,14.4,7.5-7.5,9.4-6.2,10.6-4.4,10.6-2.5,4.4-.6,10.6-.6v-.3Z"/>
      <path class="cls-1" d="M365.6,197.9h15.6l1.9,1.9v55.6l-1.9,1.9-8.8-.6h-13.8l-10,1.9-7.5,3.1-5.6,3.8-5,5.6-4.4,8.8-1.9,8.8-.6,6.2-.6,105-1.2,1.2h-55l-1.9-1.9v-194.4l1.2-1.2h52.5l1.2,1.2.6,14.4,4.4-5,5.6-5,8.8-5,7.5-3.1,6.9-1.9,11.9-1.2h0Z"/>
      <path class="cls-1" d="M1022.5,71.7h11.2l7.5,1.9,8.8,4.4,7.5,6.9,5,5.6,5.6,8.1,7.5,11.9,7.5,12.5,6.2,8.8,6.9,8.8,6.9,7.5,6.2,6.2,6.9,4.4,3.8,1.2-1.9,1.9-10.6,5-13.1,5-14.4,3.8-8.8,1.2h-11.9l-12.5-1.9-10.6-3.1-10.6-5-7.5-5-7.5-6.9-5.6-5.6-4.4-6.2-6.2-11.2-3.1-8.1-1.9-10v-7.5l2.5-10,4.4-8.1,5.6-6.2,6.2-5,6.9-3.1,7.5-1.9v-.3Z"/>
      <path class="cls-1" d="M1201.9,142.9h5.6l13.8,1.9,13.1,3.8,10,5,8.1,5.6,7.5,6.9,5.6,6.2,5.6,8.8,5,10,2.5,8.1,1.2,6.9v7.5l-1.9,8.8-5,10-6.2,6.9-6.2,4.4-6.9,3.1-9.4,1.9h-5.6l-7.5-1.2-8.1-3.1-6.9-5-8.1-8.1-7.5-10.6-10-16.2-6.2-10-6.2-8.8-6.9-8.1-5.6-6.2-5-5-7.5-5-3.8-1.2,2.5-1.9,10.6-5,11.2-4.4,13.8-3.8,6.9-1.2,7.5-.6v-.4Z"/>
      <path class="cls-1" d="M1179.4,16.1h11.2l10.6,3.1,6.9,4.4,6.2,5.6,5.6,8.8,2.5,7.5.6,3.1v11.9l-1.9,7.5-3.8,7.5-5,6.2-7.5,6.9-15,10-17.5,10.6-10.6,7.5-10,8.1-8.1,7.5-5.6,6.9-3.1,6.9-1.9-1.9-6.2-13.1-5.6-16.9-2.5-11.9-.6-5.6v-10.6l1.9-12.5,3.8-12.5,5-10,6.2-8.8,7.5-8.1,6.2-5,8.1-5,10-5,8.8-2.5,3.8-.6h0Z"/>
      <path class="cls-1" d="M776.2,436.1h10.6l1.2,3.1,13.1,54.4,1.9,6.2,10-36.2,7.5-26.9.6-.6h10.6l5.6,16.9,10.6,34.4,3.8,12.5,1.2-2.5,5.6-23.8,8.8-36.9.6-.6h10.6l-.6,5-10,37.5-7.5,27.5-3.1,11.2h-11.2l-15.6-53.1-3.8-12.5-1.2,2.5-10.6,40-5.6,21.9-.6,1.2h-11.2l-11.2-41.9-10-36.9v-2.5h0Z"/>
      <path class="cls-1" d="M1013.8,436.1h40.6l8.8,1.2,7.5,3.8,4.4,5,2.5,5.6,1.2,5.6v13.1l-1.9,6.2-3.8,3.1-4.4,1.9h-1.9v1.2l3.1,1.2,4.4,3.8,3.8,6.2,5.6,20.6v2.5h-10.6l-1.9-5-4.4-16.2-3.8-5-5.6-3.8-6.9-1.9-26.2-.6v32.5h-11.2v-80.6l.6-.6v.2ZM1024.4,447.3v26.2l.6.6h27.5l8.8-1.9,5-4.4,1.2-3.8v-7.5l-2.5-5-4.4-3.1-4.4-1.2h-31.9.1Z"/>
      <path class="cls-1" d="M1118.8,436.1h59.4v11.2h-48.8v21.2h43.1l.6.6v9.4l-.6,1.2h-43.1v26.2h48.8v11.2h-59.4l-.6-.6v-80l.6-.6v.2Z"/>
      <path class="cls-1" d="M527.5,436.1h6.9l7.5,1.2,7.5,3.1,5,3.1,6.2,5.6,5,8.1,2.5,8.1,1.2,7.5v7.5l-1.9,10-3.1,8.1-5,6.9-5.6,5-6.2,3.8-8.1,2.5-4.4.6h-7.5l-9.4-1.9-8.8-4.4-6.2-5.6-3.8-4.4-4.4-9.4-1.9-9.4v-11.2l1.9-9.4,5-10,5.6-6.2,5-3.8,7.5-3.8,9.4-1.9v.3ZM525.6,447.3l-7.5,2.5-5.6,4.4-4.4,5-3.1,7.5-.6,3.1v13.8l2.5,8.1,4.4,6.9,5.6,4.4,6.2,2.5,2.5.6h10.6l6.2-1.9,6.2-3.8,5-5.6,3.1-6.9,1.2-5.6v-11.2l-1.9-7.5-3.8-6.9-4.4-4.4-5.6-3.1-5.6-1.9h-11.2.2Z"/>
      <path class="cls-1" d="M424.4,436.1h6.9l8.1,1.2,8.1,3.1,3.8,2.5,5,5.6,2.5,6.2v3.1h-11.2l-2.5-5.6-5-3.1-5-1.2h-13.1l-6.2,1.9-4.4,3.8-.6,1.2v6.2l3.1,3.1,6.9,2.5,18.8,4.4,8.8,3.8,5.6,4.4,3.8,5.6,1.2,4.4v7.5l-2.5,6.9-3.8,5-5.6,4.4-5.6,2.5-8.8,1.9h-10l-10.6-1.9-6.9-2.5-6.9-5-3.8-6.2-1.2-5.6.6-.6h10.6l3.1,5,5,3.1,7.5,1.9h14.4l6.9-2.5,5-4.4.6-1.9v-6.2l-1.9-3.1-5-3.1-7.5-2.5-15.6-3.8-8.1-3.1-5-3.8-3.8-5-1.2-4.4v-6.9l2.5-6.9,5-5.6,8.8-4.4,4.4-1.2,5-.6h-.2Z"/>
      <path class="cls-1" d="M934.4,436.1h11.2l5.6,13.1,10.6,25.6,12.5,30.6,4.4,10.6v1.2l-11.2-.6-3.8-8.1-6.9-16.9v-1.2h-33.1l-.6,3.8-6.2,16.2-2.5,6.2-.6.6h-10.6l.6-3.8,10-25.6,8.1-21.2,10-25.6,2.5-5h0ZM939.4,449.8l-6.2,16.9-4.4,10.6v1.9h23.1l-1.9-6.2-9.4-22.5-1.2-.6h0Z"/>
      <path class="cls-1" d="M609.4,436.1h48.1l.6.6v10l-.6.6h-37.5v21.2h32.5v11.2h-32.5v37.5h-10.6l-.6-.6v-80l.6-.6h0Z"/>
      <path class="cls-1" d="M687.5,436.1h64.4l.6.6v10l-.6.6h-26.9v70h-10.6v-70h-26.9l-.6-.6v-10l.6-.6h0Z"/>
    </g>
  </g>
  <g id="Capa_2" data-name="Capa 2" class="cls-2">
    <g>
      <path class="cls-1" d="M187.4,166h5.6v44.1l-134.2,14.7h-3.7v17.5l63.4-4.6,69-4.6h5.6v44.1h-56.1v90l-4.6-1.8-29.4-15.6-10.2-5.6-.9-8.2v-59.7h-36.8v50.6l-13.8-7.4-18.4-10.2v-112.4l21.2-4.6,134.2-24.9,9.1-1.8h-.1Z"/>
      <path class="cls-1" d="M1164,208.2h5.6l.9.9v50.6h57.1v-50.6h29.4v136.1h-29.4v-57.1h-57.1v56.1l-1.8.9h-26.6l-.9-.9v-135.1l23-.9h-.1Z"/>
      <path class="cls-1" d="M617.7,206.5h12.9l14.7,1.8,14.7,4.6,10.2,5.6,9.1,8.2,6.5,9.1,5.6,13.8v4.6h-30.3l-7.4-9.1-4.6-3.7-11-4.6-5.6-.9h-16.5l-11.9,3.7-8.2,5.6-5.6,8.2-3.7,11-.9,7.4v9.1l1.8,11.9,4.6,11,4.6,5.6,9.1,5.6,12.9,2.8h12.9l11-2.8,7.4-3.7,5.6-4.6,4.6-7.4h32.2l-2.8,10.2-6.5,12.9-9.1,10.2-11.9,7.4-13.8,4.6-10.2,1.8h-26.6l-15.6-3.7-11-4.6-8.2-6.5-4.6-3.7-8.2-11.9-5.6-13.8-2.8-15.6v-20.3l2.8-15.6,4.6-11,5.6-9.1,8.2-9.1,10.2-6.5,11-4.6,11.9-2.8,8.2-.9-.3-.3Z"/>
      <path class="cls-1" d="M1045.2,206.5h11.9l19.3,2.8,14.7,5.6,9.1,6.5,8.2,8.2,6.5,11,3.7,11-.9,2.8h-29.4l-3.7-3.7-4.6-6.5-9.1-5.6-11-2.8h-16.5l-11,2.8-8.2,5.6-5.6,6.5-4.6,11.9-.9,5.6v16.5l2.8,12.9,5.6,9.1,7.4,6.5,10.2,3.7,5.6.9h13.8l11.9-2.8,9.1-5.6,6.5-7.4,1.8-2.8h31.2l-.9,6.5-4.6,11-6.5,9.1-8.2,8.2-13.8,7.4-13.8,3.7-6.5.9h-25.7l-13.8-2.8-11-4.6-10.2-6.5-7.4-7.4-7.4-11.9-4.6-12.9-1.8-10.2v-27.7l2.8-12.9,4.6-11,6.5-10.2,9.1-9.1,11-6.5,14.7-4.6,13.8-1.8v.3Z"/>
      <path class="cls-1" d="M491.8,208.2l2.8.9,11.9,32.2,21.2,58,15.6,42.4v2.8h-31.2l-3.7-8.2-17.5-49.7-13.8-38.5-2.8-3.7-21.2,64.4-11,33.1-1.8,3.7-31.2-.9,27.7-82.7,12.9-37.7,4.6-13.8.9-.9,36.8-.9v-.4Z"/>
      <path class="cls-1" d="M710.5,209.1h115.9v26.6l-.9.9h-42.4v107.5l-2.8.9h-26.6v-108.6h-37.7l-5.6-.9v-26.6h0Z"/>
      <path class="cls-1" d="M279.3,267.1h108.6v27.7h-80v50.6h-28.5l-.9-12.9v-40.5l.9-24.9h0Z"/>
      <path class="cls-1" d="M844.9,316.8h114.9l.9.9v26.6l-8.2.9h-106.7l-.9-.9v-27.7h0Z"/>
      <path class="cls-1" d="M844.9,262.5h114.9l.9.9v26.6h-115.9v-27.7h.1Z"/>
      <path class="cls-1" d="M845.7,209.1h114.9v26.6l-.9.9h-104.7l-4.6-11-4.6-13.8v-2.8h-.1Z"/>
      <path class="cls-1" d="M279.3,209.1h110.3v26.6h-97.4l-3.7-5.6-9.1-20.3v-.9h-.1Z"/>
    </g>
  </g>
  <g id="Capa_3" data-name="Capa 3">
    <g>
      <path class="cls-1" d="M728.5,216.2l11,.6,10.4,2.5,9.3,3.7,8,4.9,6.1,4.9,4.9,4.3,6.1,8,4.9,8.7,3.1,7.4,3.1,11.7.6,5.5v66.5l-1.2,1.9-3.1.6h-18.5l-2.5-1.2-.6-1.9-.6-65.9-1.9-8.7-4.9-9.9-4.3-5.5-4.9-4.3-6.1-3.7-7.4-2.5-3.1-.6h-12.9l-7.4,1.9-8.7,4.3-7.4,6.8-4.3,6.1-3.7,9.3-1.2,8,.6,9.3,2.5,8,4.3,8,6.1,6.8,6.8,4.3,7.4,3.1,8.7,1.9,27.7.6,1.2.6.6,1.9v20.9l-1.2,1.9-1.9.6h-27.1l-11-1.9-11-3.7-9.3-4.9-7.4-5.5-6.1-5.5-4.9-6.1-5.5-9.3-3.7-8.7-1.9-7.4-.6-4.3v-15.4l2.5-12.3,3.7-9.3,4.9-8.7,7.4-8.7,6.8-6.1,8.7-5.5,9.9-4.3,8.7-2.5,10.4-1.2h0Z"/>
      <path class="cls-1" d="M1156.4,216.2l9.9.6,11,2.5,9.3,3.7,9.3,5.5,6.1,5.5,3.7,3.1,4.9,6.1,4.3,6.8,4.9,10.4,2.5,9.3,1.2,9.9v65.2l-1.2,1.9-3.1.6h-18.5l-2.5-1.2-.6-1.2-.6-67.1-2.5-9.9-3.7-7.4-4.9-6.1-4.9-4.3-7.4-4.3-8.7-2.5h-14.2l-8.7,2.5-7.4,4.3-7.4,6.8-4.9,8-3.1,9.9-.6,9.9,1.9,8.7,2.5,6.8,4.3,6.1,4.3,4.9,6.1,4.3,6.8,3.1,6.1,1.9,4.9.6,27.7.6,1.2,1.9v21.6l-1.2,1.9-1.9.6h-27.1l-11-1.9-11-3.7-9.3-4.9-7.4-5.5-5.5-4.9-6.8-8.7-4.3-7.4-3.7-9.3-2.5-11-.6-9.3,1.2-10.4,2.5-9.9,6.1-12.9,5.5-7.4,6.8-7.4,8-6.1,9.9-4.9,8-3.1,9.3-1.9,6.8-.6h.2Z"/>
      <path class="cls-1" d="M548.1,171.2h26.5l.6,1.2.6,12.9v8.7l-2.5,2.5-3.1.6h-12.9l-9.9,1.2-7.4,3.1-6.1,4.9-4.3,6.1-3.1,7.4-.6,2.5-.6,20.9h48.7l.6.6v24l-1.2.6-48.1.6-.6,77.6-3.1.6h-18.5l-3.1-.6-.6-20.3v-102.8l1.9-10.4,3.1-8.7,4.3-8,4.3-5.5,3.7-4.3,8.7-6.8,9.3-4.9,9.9-3.1,3.7-.6-.4.2Z"/>
      <path class="cls-1" d="M873.2,217.4h38.2l1.9,1.2v23.4l-1.9,1.2-36.3.6-8.7,1.9-9.9,4.9-7.4,6.8-3.7,4.9-3.7,8-1.2,4.3-.6,9.9,1.9,9.3,3.1,7.4,4.3,6.8,6.8,6.1,9.9,4.9,9.3,1.9,36.3.6,1.9,1.9.6,11.7v8.7l-1.9,3.1-1.2.6h-35.7l-11-1.9-11-3.7-8-4.3-6.8-4.9-6.1-5.5-5.5-6.1-4.3-6.8-3.7-7.4-3.1-9.3-1.2-6.8-.6-10.4,1.2-9.9,3.1-11,4.9-9.9,4.3-6.8,7.4-8,8.7-6.8,7.4-4.3,11.7-4.3,11-1.9h-.3Z"/>
      <path class="cls-1" d="M1021,171.2h22.8l.6.6.6,31.4v14.8l6.8-.6h29l1.2,1.2.6,12.3v9.9l-2.5,2.5h-35.1l.6,51.1,1.9,7.4,3.7,7.4,5.5,5.5,4.9,3.1,8,2.5,10.4,1.2,1.9.6.6,1.2v21.6l-3.1,2.5h-7.4l-12.9-2.5-9.3-3.7-8.7-5.5-6.1-5.5-5.5-6.1-5.5-9.3-3.7-11-1.2-7.4v-107.8l.6-16.6,1.2-.6h0Z"/>
      <path class="cls-1" d="M934.8,171.2h22.8l.6.6.6,45.5h35.1l1.2.6.6,1.9v22.2l-1.2,1.2h-36.3l.6,42.5.6,10.4,2.5,8,3.7,5.5,2.5,3.1,6.1,4.3,6.1,2.5,6.1,1.2,7.4.6,1.9,1.2.6,1.9v20.3l-3.1,2.5h-8l-10.4-1.9-9.9-3.7-8.7-4.9-8-7.4-5.5-6.1-5.5-9.9-3.7-11-.6-3.7v-125.6l1.9-1.9.2.4Z"/>
      <path class="cls-1" d="M1246.4,171.2h22.2l1.9.6v174.3l-3.1,1.2h-19.7l-2.5-1.2-.6-1.2v-161.9l.6-11,1.2-.6h0Z"/>
      <path class="cls-1" d="M42.1,230.4h6.1l9.9,2.5,8,4.3,6.1,5.5,3.7,4.9,3.7,7.4,1.9,8v7.4l-2.5,9.9-4.3,7.4-5.5,6.1-6.1,4.3-6.8,3.1-9.9,1.9-7.4-.6-8-2.5-7.4-4.3-5.5-4.9-4.3-6.1-3.1-6.8-1.2-3.1v-16l4.3-9.9,4.3-6.1,6.8-6.1,9.3-4.3,8-1.9h-.2Z"/>
      <path class="cls-1" d="M199.7,71.6h8l9.9,2.5,8,4.3,5.5,4.9,4.3,6.1,3.7,8,1.2,5.5v8.7l-2.5,9.9-4.3,7.4-5.5,6.1-6.1,4.3-6.8,3.1-5.5,1.2h-11l-9.9-3.1-6.8-4.3-6.8-6.8-4.9-9.9-1.9-6.8v-10.4l3.1-9.9,4.3-6.8,5.5-6.1,6.8-4.3,6.1-2.5,5.5-1.2h0Z"/>
      <path class="cls-1" d="M360.4,230.4l9.9.6,7.4,2.5,6.8,3.7,6.1,5.5,5.5,8.7,2.5,6.8.6,3.1v11l-2.5,8-3.1,6.1-5.5,6.8-6.1,4.3-6.1,3.1-6.8,1.9h-11.7l-8-2.5-6.8-3.7-6.1-5.5-4.3-5.5-3.7-9.3-1.2-5.5v-7.4l1.2-6.1,3.1-7.4,3.7-5.5,3.1-3.7,6.8-4.9,6.8-3.1,8.7-1.9h0Z"/>
      <path class="cls-1" d="M197.8,389.8h12.9l8,2.5,8,4.9,6.1,6.1,4.9,8.7,1.9,5.5.6,3.7v8.7l-2.5,9.3-4.3,8-3.1,3.7h-1.2v1.2l-8,5.5-9.9,3.7-3.1.6h-7.4l-9.9-2.5-6.8-3.7-6.8-5.5-4.3-6.1-3.7-8-1.2-5.5v-9.3l1.9-7.4,4.9-9.9,7.4-7.4,7.4-4.3,8-2.5h0Z"/>
      <path class="cls-1" d="M638.7,217.4h17.8l1.9,1.2.6,1.9v19.7l-1.2,2.5-1.2.6-16,.6-8,2.5-4.9,3.7-4.3,5.5-2.5,6.1-.6,9.3-.6,75.1-3.7,1.2h-17.2l-4.3-1.2v-84.3l1.9-9.3,3.1-7.4,4.3-7.4,6.8-7.4,6.1-4.9,9.9-4.9,5.5-1.9,6.8-1.2h0Z"/>
      <path class="cls-1" d="M314.2,172.5h7.4l8,2.5,6.1,3.7,4.9,4.9,3.1,5.5,2.5,6.8v9.3l-2.5,7.4-4.3,6.8-5.5,4.9-6.1,3.1-8.7,1.9-6.1-.6-7.4-2.5-6.1-4.3-4.9-5.5-3.1-6.1-1.2-4.3v-9.9l2.5-7.4,4.3-6.8,6.1-4.9,6.1-3.1,4.9-1.2v-.2Z"/>
      <path class="cls-1" d="M87.6,304.2h4.9l7.4,1.9,7.4,3.7,5.5,5.5,3.7,6.8,1.9,6.1v8l-2.5,8-3.7,6.1-4.3,4.3-6.8,3.7-7.4,2.5h-6.1l-7.4-1.9-5.5-3.1-6.1-5.5-3.7-6.1-1.9-4.3-.6-3.1v-9.3l2.5-7.4,3.7-5.5,4.9-4.9,5.5-3.1,4.9-1.9,3.7-.6h0Z"/>
      <path class="cls-1" d="M266.8,352.3h5.5l6.8,1.2,8,4.3,5.5,5.5,3.7,6.1,1.9,6.1v9.3l-1.9,6.1-3.7,6.8-4.9,4.9-6.1,3.7-9.3,2.5-7.4-.6-7.4-2.5-6.1-4.3-4.9-5.5-3.1-6.8-1.2-4.9v-8l2.5-8,3.7-5.5,4.9-4.9,5.5-3.1,8-2.5h0Z"/>
      <path class="cls-1" d="M136.3,124.5l8,.6,6.8,2.5,5.5,3.7,4.3,4.3,4.3,8.7,1.2,4.9v8l-2.5,7.4-4.3,6.8-5.5,4.9-7.4,3.7-6.8,1.2-7.4-.6-6.8-2.5-5.5-3.7-4.3-4.3-3.1-4.9-2.5-8v-9.3l2.5-7.4,3.7-5.5,4.9-4.9,4.9-3.1,5.5-1.9,4.3-.6h0Z"/>
      <path class="cls-1" d="M255.7,154l6.8.6,6.8,2.5,5.5,4.3,3.7,5.5,2.5,6.8v8l-2.5,6.8-3.7,4.9-4.9,4.3-6.1,2.5-2.5.6h-7.4l-6.8-2.5-5.5-3.7-3.7-4.3-2.5-4.9-1.2-6.1v-4.3l2.5-8,3.7-4.9,4.9-4.3,4.9-2.5,5.5-1.2h0Z"/>
      <path class="cls-1" d="M289,296.8h8l6.1,1.9,5.5,3.7,4.9,5.5,2.5,5.5.6,2.5v7.4l-2.5,7.4-2.5,3.7-4.9,4.9-6.1,3.1-6.1,1.2-6.1-.6-7.4-3.1-6.1-5.5-3.1-4.9-1.9-6.8v-5.5l1.9-6.1,3.7-6.1,5.5-4.9,5.5-2.5,2.5-.6v-.2Z"/>
      <path class="cls-1" d="M146.1,332.6h9.3l6.8,2.5,4.9,3.7,4.3,5.5,2.5,6.1.6,3.1v4.9l-2.5,7.4-4.3,6.1-4.9,3.7-6.8,3.1h-9.3l-7.4-2.5-6.1-4.9-3.7-6.1-1.9-5.5v-8l2.5-6.8,3.7-5.5,4.9-3.7,4.9-2.5,2.5-.6h0Z"/>
      <path class="cls-1" d="M112.2,189.8h5.5l8,2.5,4.9,3.7,4.3,4.9,2.5,4.9,1.2,5.5-.6,7.4-2.5,6.1-4.9,6.1-6.1,3.7-5.5,1.9h-6.8l-8-2.5-5.5-4.3-3.7-4.9-2.5-5.5-.6-2.5v-7.4l2.5-6.8,3.7-5.5,4.3-3.7,6.8-3.1,3.1-.6h0Z"/>
      <path class="cls-1" d="M201.5,336.2h7.4l7.4,3.1,4.9,4.9,2.5,4.9,1.2,4.9-.6,6.1-3.7,7.4-5.5,4.9-6.1,2.5h-7.4l-5.5-1.9-5.5-4.3-3.7-6.1-1.2-4.9v-4.9l1.9-6.1,4.3-5.5,5.5-3.7,4.3-1.2h0Z"/>
      <path class="cls-1" d="M110.4,248.2h9.3l5.5,2.5,4.9,4.3,3.1,4.9,1.2,3.1v8.7l-1.9,4.9-4.3,5.5-5.5,3.7-4.3,1.2h-6.1l-6.8-2.5-4.9-3.7-3.7-6.1-1.2-4.9v-4.9l2.5-7.4,4.9-5.5,7.4-3.7h0Z"/>
      <path class="cls-1" d="M199,158.3h8.7l5.5,2.5,4.9,3.7,3.7,6.1,1.2,4.9-.6,7.4-2.5,4.9-4.9,5.5-6.1,3.1-1.9.6h-6.8l-6.8-2.5-5.5-4.9-3.7-7.4-.6-5.5,1.2-6.1,3.7-6.1,5.5-4.3,4.9-1.9h0Z"/>
      <path class="cls-1" d="M289.6,246.4h7.4l6.8,2.5,4.3,3.7,3.7,6.1,1.2,4.9v4.9l-2.5,6.8-5.5,6.1-7.4,3.7h-8.7l-7.4-3.7-4.3-4.3-2.5-4.9-.6-2.5v-8.7l2.5-5.5,4.3-4.9,4.9-3.1,3.7-1.2h0Z"/>
      <path class="cls-1" d="M168.3,194.7l4.9.6,4.9,2.5,3.7,4.3,1.2,3.7v4.3l-2.5,5.5-3.1,3.1-4.9,2.5h-6.1l-4.9-2.5-3.7-4.9-1.2-3.7.6-6.1,3.1-4.9,5.5-3.7,2.5-.6h0Z"/>
      <path class="cls-1" d="M235.4,312.2h6.8l4.9,2.5,3.1,3.7,1.9,5.5-.6,5.5-2.5,3.7-3.1,3.1-4.3,1.9h-6.1l-4.9-2.5-3.7-4.3-1.2-4.3v-4.3l1.9-4.9,4.9-4.3,3.1-1.2h0Z"/>
      <path class="cls-1" d="M259.4,219.3h6.8l4.9,2.5,3.1,3.7,1.9,4.3v4.9l-3.1,6.1-5.5,3.7-1.9.6h-5.5l-4.3-1.9-3.1-2.5-2.5-4.9-.6-4.9,1.9-5.5,3.7-4.3,4.3-1.9h-.2Z"/>
      <path class="cls-1" d="M142.4,288.3h6.8l4.9,2.5,3.1,3.7,1.9,4.3v4.3l-2.5,5.5-4.9,4.3-3.1,1.2h-5.5l-6.1-3.1-3.7-5.5-.6-2.5v-4.3l1.9-4.9,4.9-4.3,3.1-1.2h0Z"/>
      <path class="cls-1" d="M178.7,303.6l6.1,1.2,3.1,2.5,2.5,4.9-.6,5.5-2.5,3.7-4.3,2.5h-6.1l-3.7-2.5-2.5-3.1-.6-1.9v-5.5l2.5-3.7,3.7-3.1,2.5-.6Z"/>
      <path class="cls-1" d="M155.4,232.2l4.9.6,3.1,1.9,3.1,3.7.6,1.9v4.3l-1.9,3.7-4.3,3.7-1.9.6h-4.9l-4.3-2.5-2.5-3.7-.6-1.9v-4.9l1.9-3.1,3.7-3.1,3.1-1.2v-.2Z"/>
      <path class="cls-1" d="M227.4,208.8l5.5,1.2,3.7,3.1,1.9,3.7v4.9l-3.1,4.9-3.7,2.5h-6.8l-4.3-3.1-1.9-3.1-.6-4.9,1.9-4.9,3.7-3.1,3.7-1.2h0Z"/>
      <path class="cls-1" d="M249,280.9h5.5l3.7,1.9,2.5,3.1,1.2,3.1-.6,5.5-2.5,3.7-3.7,2.5-3.7.6-5.5-1.9-3.1-3.7-1.2-3.1.6-6.1,3.1-3.7,3.7-1.9h0Z"/>
    </g>
  </g>
  <g id="Capa_4" data-name="Capa 4" class="cls-2">
    <g>
      <polygon class="cls-1" points="1149.4 165.4 1147.5 152.9 1143.1 139.1 1138.1 128.5 1130.6 117.3 1125 111.7 1118.8 106.1 1111.3 101.1 1101.3 96.1 1090.1 92.3 1074.5 89.2 1058.9 88 1042.7 88.6 1033.9 89.8 1022 92.9 1013.2 96.7 1005.1 101.7 998.2 106.1 998.2 19.9 997.6 18 995.7 14.9 990.1 13 951.3 13 951.4 12.9 945.8 14.8 942 17.9 941.4 30.4 941.4 298.5 942.6 304.7 944.5 306.6 949.4 308.6 950.7 309.2 986.9 309.2 986.9 309.1 993.1 307.9 996.2 305.4 998 301.1 998.2 301.1 998.7 180.3 999.9 170.4 1003 162.9 1007.4 156.7 1011.8 151.7 1015.6 148.6 1022.5 144.2 1030 141.1 1038.8 139.2 1053.8 139.2 1058.2 139.8 1066.3 142.3 1075.1 147.3 1080.7 152.3 1086.3 159.8 1089.4 166 1091.9 174.1 1092.5 267.9 1093.1 302.9 1094.3 305.4 1097.4 307.3 1102.4 309.2 1102.6 309.2 1139.3 309.2 1139.5 309.2 1139.5 309.2 1143.1 308.6 1147.5 306.1 1150 301.1 1150 174.2 1149.4 165.4"/>
      <polygon class="cls-1" points="914.4 143 908.2 131.1 901.3 121.7 895.7 116.1 889.5 110.5 880.7 104.3 870.1 98.7 858.2 93.7 843.8 89.9 828.2 88 806.3 88 806 87.8 799.8 88.4 786.7 90.9 774.2 94.7 765.4 98.5 756.6 103.5 747.8 109.7 740.9 116.6 735.3 122.8 730.3 129.7 726.5 136.6 722.1 146 719 155.4 715.9 169.8 714.7 183.6 714.7 219.2 715.3 226.1 717.2 238.6 721 252.4 726 264.3 731.6 273.7 736 279.9 742.9 286.8 749.1 292.4 757.2 298 769.1 304.2 781 308.6 791.6 311.1 799.5 312.2 799.5 312.4 807 313.3 809.1 313.6 809.5 313.6 826.6 313.6 827 313.6 832.6 313 831.9 312.8 843.5 311.1 856.6 308 869.7 303 880.3 297.4 890.9 289.9 900.9 279.9 908.4 269.9 912.8 261.8 915.9 253.7 918.4 243.1 917.8 236.9 914 232.5 908.4 231.3 872.2 231.3 866.6 231.9 865.4 232.5 862.9 235.6 856.7 248.1 851.7 256.2 846.7 261.2 839.8 265.6 829.8 268.7 821 269.9 809.8 269.3 799.8 266.8 792.3 263 786.1 258 781.1 251.8 777.3 244.3 774.2 233.7 772.3 219.9 771.7 204.9 771.7 195.5 772.3 182.4 773.5 171.2 775.4 162.4 778.5 154.3 784.1 145.5 791 139.3 801 134.3 809.8 132.4 826.7 132.4 835.5 134.3 842.4 137.4 848.6 141.8 852.4 146.2 856.8 153.7 861.8 163.7 866.2 169.3 871.2 170.5 908.7 170.5 914.3 168.6 918.7 163.6 918.7 158 917.5 152.4 914.4 143"/>
      <path class="cls-1" d="M143.9,308.4l10.6-1.2,14.4-2.5,15.6-4.4,13.1-5.6,10.6-6.2,9.4-7.5,6.9-7.5,5.6-7.5,5-8.1,5-11.2,4.4-15,3.1-16.9,1.2-14.4.6-18.8v-40.6l-.6-18.8v.2c0,0-.5-9.4-.5-9.4l-1.2-10-2.5-11.9-5-15-5.6-11.9-5.6-8.8-6.9-8.8-8.1-7.5-10-7.5-11.9-6.2-12.5-5-16.2-4.4-12.5-1.9-18.8-1.2H30.3l-15.6.6-3.8,1.9-1.9,5v281.2l1.2,3.1,3.8,3.1,6.1,1.2v.3h43.1v-.3h38.8v.2h31.2v-.2s0,0,0,0l10.6-.6ZM67.1,259.8l-.6-14.4V70.4l.6-8.8h58.1l16.2,1.2,10.6,2.5,7.5,3.1,7.5,4.4,6.2,5.6,4.4,5,5.6,10,3.8,11.2,1.9,9.4.6,6.9.6,21.2v42.8l-.6,16.2-1.2,11.9-2.5,10.6-3.8,10-4.4,6.9-5.6,6.2-6.9,5-8.1,3.8-11.2,3.1-10,1.2-10.6.6h-57.5l-.6-.6Z"/>
      <polygon class="cls-1" points="418.6 306.7 425.5 307.8 425.7 308 433.3 309 434.8 309.2 448.6 309.8 448.9 309.8 448.9 309.8 466.4 309.8 478.9 309.2 479 309.1 481.1 308.6 484.2 306.7 486.7 302.9 487 301.1 487.6 301.1 488.2 296.1 488.2 275.5 487 268.6 485.2 266.8 482.3 263.5 472.9 262.9 442.3 262.3 436.1 260.4 430.5 256.6 426.1 250.4 423.6 242.3 422.4 233.5 421.8 184.7 421.8 136.6 466.8 136.6 476.8 136 479.9 134.8 483.7 129.2 484.2 120.7 484.4 120.5 484.4 106.1 483.8 99.9 483.5 99.5 481.2 94.8 478.1 92.3 422.5 91.7 421.9 71.7 421.3 19.2 420.7 18 418.2 14.9 414.4 13 378.2 13 378.1 12.9 373.7 13.5 369.9 16 368 19.8 368 243.6 369.9 256.1 373 267.3 377.4 276.7 383 285.5 390.5 293 398.6 298.6 408.6 303.6 418.6 306.7"/>
      <polygon class="cls-1" points="324.4 309.3 327.5 308.7 331.9 306.2 333.8 302.4 333.8 98.6 333.2 96.7 330.7 93.6 327.6 92.4 287 92.4 287 92.3 283.2 93.5 280.7 97.3 279.5 101.7 279.5 300.5 280.7 303.6 283.8 307.4 284.6 307.8 284.4 308 287.3 308.9 288.2 309.3 324.4 309.3"/>
      <polygon class="cls-1" points="118.2 414.9 115.7 413 68.2 413 67 413.6 65.8 416.1 65.8 424.9 66.4 426.1 70.8 428 98.9 428.6 98.9 442.4 96.4 452.4 92 459.9 87 464.3 80.8 467.4 70.8 469.9 56.4 469.9 48.3 468 42.1 464.9 37.7 461.1 33.9 456.1 30.8 448.6 28.9 438 28.3 421.1 28.9 397.3 29.5 392.9 32 384.8 35.8 378.6 42 373 48.2 369.9 55.7 368 71.9 368 75 368.6 80.6 370.5 88.1 374.9 92.5 379.9 96.3 386.1 99.4 391.1 114.4 391.1 116.3 390.5 116.9 386.1 115 379.2 110.6 371.7 105.6 366.1 99.4 361.1 91.9 356.7 83.8 353.6 74.4 351.7 61.3 351.1 61.2 350.9 48.1 352.1 39.3 354.6 29.9 359.6 23 365.2 17.4 372.1 12.4 382.1 9.9 391.5 8.7 405.9 8.7 434.7 9.3 441.6 11.8 452.8 15.6 461.6 20 468.5 26.9 475.4 33.8 479.8 43.8 484.2 54.4 486.1 72.5 486.1 83.1 484.2 91.2 481.1 100 476.1 105.6 471.1 110.6 464.9 114.4 458 116.9 450.5 117.9 443.6 118.2 443.6 118.8 438 118.8 419.9 118.8 419.9 118.2 414.9"/>
      <polygon class="cls-1" points="383.8 386.1 369.4 386.1 368.2 386.7 367.6 390.5 367 441.1 366.4 450.5 364.5 457.4 360.7 463 355.1 467.4 347.7 470 344.3 470.6 340.1 471 336.2 470.7 331.6 469.7 328 468.4 325.1 466.6 322.8 464.8 319.4 459.8 316.9 452.9 315.7 442.3 315.1 387.3 313.9 386.1 300.1 386.1 300.2 386 297.1 387.9 297.1 388.2 297 388 297 449.8 297.1 449.8 299 459.8 302.1 467.3 306.5 474.2 312.7 479.8 318.9 483.6 328.3 486.1 328.4 486.1 328.4 486.1 339.6 486.1 339.6 486.1 344.5 486.1 351.4 484.2 357.6 481.1 367.6 473.6 368.8 483.6 370.7 484.8 383.2 484.8 384.4 484.2 385.6 480.4 385.6 389.8 385 386.7 383.8 386.1"/>
      <path class="cls-1" d="M700.1,184.3l-.8-5.7-.5-4.3h0l-.5-3.8-3.1-13.1-5-13.8-6.2-11.9-6.2-9.4-5.6-6.2-9.4-8.8-10-6.2-10-5-10-3.8-10.6-2.5-15-1.9h-20.6l-13.8,1.9-13.8,3.8-11.2,5-10,5.6-8.1,6.2-8.8,8.8-6.9,8.8-4.4,6.9-6.2,13.1-3.8,11.2-3.8,18.1-1.2,12.5v22.5l1.2,13.8,2.5,13.1,3.8,12.5,3.8,9.4,6.2,11.2,6.2,8.1,8.8,8.8,6.9,5.6,7.5,5,10,5,8.1,3.1,12.5,3.1,7.5,1.1v.3l10,1.2h16.9l9.4-1.2-.6-.2,8.1-1.2,11.2-2.5,9.4-3.1,8.8-3.8,10-5,10.6-7.5,9.4-9.4,5.6-6.9,3.8-6.9,2.5-6.9v-5l-.6-1.9-3.8-3.8-4.4-.6h-38.1l-5.6,1.2-8.1,9.4-7.5,6.9-10.6,5.6-8.8,2.5-11.9.6-9.4-1.2-5.6-1.9-5-2.5-6.9-5-3.1-3.8-5-6.9-4.4-10-3.1-13.1-1.2-12.5h137.5l4.4-.6,2.5-1.2,3.1-3.1,1.9-5v-13.8l-.6-9.4-.2.4ZM644,181.8h-92l-.6-.6v-8.1l2.5-13.8,2.5-6.9,3.8-7.5,6.9-7.5,5.6-5,9.4-4.4,6.9-1.9,7.5-.6,12.5,1.2,8.8,3.1,6.9,4.4,6.2,5.6,5,6.9,4.4,9.4,2.5,8.8,1.2,8.8v8.1Z"/>
      <path class="cls-1" d="M282,416.8l-3.1-8.8-5-8.8-6.9-6.9-7.5-4.4-9.4-3.1-9.4-1.2h-6.9l-9.4,1.2-8.1,2.5-7.5,4.4-6.2,5.6-5,7.5-3.8,9.4-1.9,10v21.9l.6,4.4,1.9,7.5,4.4,10,5,5.6,6.2,5.6,10,5,9.4,1.9h17.5s0,0,0,0h0s9.9-2.5,9.9-2.5l9.4-5,5.6-5,5.6-8.1,3.1-7.5,2.5-11.2v-21.9l-1.2-8.1h0ZM263.9,450.6l-2.5,7.5-3.8,6.2-4.4,3.8-8.1,3.8-3.8.6h-7.5l-7.5-1.9-5-2.5-5-5-3.8-7.5-1.9-6.9-.6-4.4v-19.4l2.5-10.6,3.8-6.2,2.5-3.1,5.6-3.8,7.5-2.5h11.2l8.1,2.5,5.6,4.4,4.4,6.2,2.5,8.1,1.2,8.8v13.1h.2s-1.2,8.8-1.2,8.8Z"/>
      <path class="cls-1" d="M495.1,417.4l-2.5-8.1-3.8-7.5-4.4-6.2-5-4.4-6.2-3.8-6.9-2.5-8.8-1.2h-5.6l-6.2.6-8.1,2.5-7.5,4.4-6.8,5.6v-.2c0,0-.7-9.1-.7-9.1l-1.2-1.2h-13.8l-1.2.6-.4.9-.3-.3h0c0-.1-.6,1.8-.6,1.8v125.9c.1,0,.7,4.2.7,4.2l3.8,1.2h12.5l1.2-4.4v-43.1l1.2.6,6.2,5.6,8.1,4.4,8.1,2.5h16.2l7.5-1.9,5-2.5,6.9-5,5.6-6.9,3.8-6.9,3.1-10,1.2-8.8v-18.8l-1.2-8.1v.2ZM477,449.9l-2.5,7.5-3.8,6.2-5,4.4-7.5,3.1-3.1.6h-7.5l-8.1-1.9-6.9-4.4-3.8-4.4-3.8-7.5-1.9-7.5-.6-6.9v-6.9l1.2-10.6,3.1-8.1,3.8-5.6,6.2-5.6,5.6-2.5,2.5-.6h11.9l6.2,1.9,5.6,3.8,4.4,5,3.1,7.5,1.2,6.2.6,6.2v10h.3c0,0-1.2,10.1-1.2,10.1Z"/>
      <polygon class="cls-1" points="281.3 63.1 283.8 66.2 292.6 67.4 312.6 67.4 326.4 66.8 328.9 66.2 332 64.3 333.9 59.9 333.9 19.3 331.4 15.5 327.6 13 287 13 287 13.1 282 15.6 279.5 21.8 279.5 56.8 280.1 60.6 281.3 63.1"/>
      <polygon class="cls-1" points="173.9 387.4 167 388.6 159.5 392.4 152 398 151.4 388 149.5 387.4 135.1 387.4 134.6 387.9 134.6 484.8 135.2 485.4 141.4 486 148.9 486 151.4 485.4 152.5 482.4 152.6 482.4 153.2 421.8 153.2 421.8 153.2 421.7 155.7 413.6 160.1 408.6 163.9 406.1 170.1 404.2 190.1 403 190.7 401.1 190.7 388.6 190.1 387.4 173.9 387.4"/>
      <polygon class="cls-1" points="135.1 387.4 135.1 387.4 135.2 387.3 135.1 387.4"/>
    </g>
  </g>
</svg>